<?xml version="1.0" encoding="UTF-8"?>
<svg id="Layer_2" data-name="Layer 2" xmlns="http://www.w3.org/2000/svg" viewBox="0 0 524.38 530.73">
  <defs>
    <style>
      .cls-1 {
        fill: #fff;
        stroke-width: 0px;
      }
    </style>
  </defs>
  <g id="Layer_1-2" data-name="Layer 1">
    <g>
      <path class="cls-1" d="M210.74,461.78c-4.83-19.37-16.62-33.37-35.11-41.68-18.43-8.28-36.84-7.36-55.04.7-1.1-5.39-1.89-10.43-3.16-15.34-6.61-25.62-23.36-41.43-48.21-49.1-3.3-1.02-4.6-2.25-5.1-5.86-3.05-21.95-15.76-37.13-34.99-46.89-7.93-4.03-16.68-6.49-25.16-9.38-2.39-.82-3.43-1.68-2.52-4.41.6,0,1.22-.12,1.77.02,15.71,4.05,30.78,9.55,43.57,19.93,12.47,10.12,19.71,23.32,22.23,39.11.37,2.31,1.19,3.19,3.51,3.9,16.47,5,30.43,13.74,40.21,28.28,1.59,2.37,3.36,3.29,6.36,3.51,16.64,1.26,30.17,8.07,38.98,22.86.66,1.1,2.08,2.17,3.33,2.44,25.92,5.59,44.26,19.86,52.65,45.65.11.35.3.68.53,1.2.53.02,1.14.14,1.72.07,19.12-2.37,36.82,2.56,53.29,11.61,13.97,7.68,27.4,16.38,40.84,24.99,3.45,2.21,6.17,3.16,10.2,1.54,10.14-4.06,20.49-7.62,31-12.39-20.89-10.57-41.78-21.15-62.68-31.71-20.8-10.51-41.62-21-63.18-31.88,4.4-2.38,8.07-4.34,11.71-6.35,5.68-3.13,11.43-6.16,16.99-9.5,2.22-1.34,3.91-1.32,6.18-.19,25.17,12.45,50.41,24.77,75.59,37.21,2.21,1.09,3.69,1.35,5.26-.98,1.58-2.35,3.6-4.4,5.77-6.98-9.5-4.75-18.7-9.43-27.97-13.96-40.13-19.62-80.27-39.21-120.42-58.79-22.54-10.99-45.04-22.06-67.71-32.79-5.01-2.37-8.1-4.99-7.88-11,.17-4.58-.85-9.19-1-13.8-.07-2.04-.68-3.14-2.5-4-6.32-2.98-12.53-6.18-18.87-9.12-2.25-1.05-3.62-2.4-3.9-4.94-.47-4.34-.95-8.69-1.77-12.97-.27-1.43-1.3-3.28-2.51-3.88-13.19-6.55-26.47-12.89-39.74-19.27-5.38-2.58-10.78-5.11-16.51-7.82,0,6.62-.12,12.88.14,19.13.03.84,1.87,1.8,3.04,2.37,15.04,7.32,30.04,14.72,45.2,21.78,4.78,2.22,7.73,4.85,8.37,10.53.65,5.74,2.68,11.31,4.31,17.75-2.17-.97-3.7-1.62-5.2-2.34-28.79-13.82-57.53-27.76-86.42-41.38-4.6-2.17-6.17-4.67-5.91-9.79,1.47-29.4,6.95-57.91,17.6-85.39.35-.91.88-1.75,1.6-3.17,5.82,2.82,11.55,5.46,17.11,8.42.79.42,1.04,2.37,1.06,3.62.11,11.61.18,23.23.08,34.84-.02,2.49.83,3.7,3.06,4.78,46.59,22.63,93.15,45.34,139.7,68.07,4.02,1.96,9.31,3.29,11.46,6.57,2.04,3.11.77,8.42.88,12.76.07,2.85.01,5.71.01,9.29-9.4-4.4-18.36-8.6-27.63-12.94,0,4.62-.08,8.8.08,12.97.03.73.94,1.66,1.68,2.08,2.27,1.3,4.71,2.31,7,3.58,12.31,6.83,24.39,14.11,36.92,20.49,34.92,17.79,69.97,35.31,105.06,52.76,29.95,14.9,60.02,29.55,90.04,44.3,1.66.82,3.35,1.58,5.13,2.41,3.8-4.4,7.45-8.62,11.51-13.33-4.21-2.22-8.08-4.39-12.05-6.34-38.43-18.84-76.89-37.61-115.31-56.47-26.99-13.25-53.92-26.64-80.92-39.88-1.95-.96-2.77-2.01-2.75-4.22.1-11.24-.05-22.48.13-33.71.04-2.37-.59-3.38-2.74-4.41-29.67-14.29-59.29-28.69-88.85-43.21-1.01-.5-1.99-2.53-1.84-3.69,2.95-21.96,9.86-42.47,22.87-60.64,15.32-21.39,34.22-38.88,58.15-50,44.26-20.55,88.64-20.07,132.59,1.39,20.14,9.83,37.1,23.83,51.94,40.5,1.23,1.39,2.33,2.89,3.87,4.81-2.35,1.16-4.37,2.26-6.46,3.19-38.35,16.94-76.7,33.86-115.05,50.8-3.2,1.41-6.45,2.74-9.5,4.42-2.77,1.52-4.88,1.1-7.43-.67-8.01-5.53-16.26-10.71-24.31-16.18-1.94-1.32-3.43-1.44-5.39-.18-3.03,1.95-6.22,3.65-10.04,5.87,2.39,1.81,4.36,3.39,6.42,4.85,12.51,8.91,25.27,17.47,37.49,26.75,18.83,14.29,25.7,33.73,21.33,56.61-1.43,7.48-.25,12.49,4.99,17.71,5.73,5.7,10.6,12.27,15.92,18.4.87,1,1.99,1.9,3.18,2.48,50.16,24.7,100.34,49.38,150.52,74.02,11.76,5.78,23.6,11.41,35.37,17.18,8.77,4.3,16.54,9.89,21.61,18.48,9.59,16.26,5.23,37.62-10.22,50.66-8.85,7.47-18.84,11.12-30.5,8.84-8.9-1.74-16.02-9.73-16.93-18.69-.29-2.87.25-4.84,3.49-5.48,2.18-.43,4.26-1.29,6.67-2.05.49,1.64.91,3.15,1.4,4.64,2.86,8.7,10.01,12.26,18.59,9.07,9.46-3.52,15.38-10.22,16.44-20.39,1.04-9.98-3.2-18-11.48-23.23-6.51-4.11-13.72-7.11-20.66-10.51-2.77-1.36-5.85-3.7-8.45-3.32-2.4.36-4.35,3.77-6.49,5.84-26.47,25.49-56.42,45.56-90.82,58.87-17.61,6.81-45.5,14.47-58.17,15.44-15.8-39.68-44.27-62.5-88.23-65.71ZM130.49,220.61c2.31,1.28,3.98,2.34,5.76,3.18,12.51,5.92,25.05,11.79,37.57,17.69,8.23,3.88,16.44,7.83,24.72,11.6.99.45,2.9.47,3.53-.16,2.48-2.51,4.62-5.35,7.3-8.58-24.2-11.84-47.97-23.48-71.97-35.23-2.4,4-4.5,7.49-6.9,11.48ZM233.91,313.98c3.55,1.49,6.46,2.8,9.44,3.9.64.24,1.89.03,2.29-.45,2.38-2.86,5.07-5.6,6.76-8.85,8.09-15.53.52-35.76-15.88-43.05-6.59-2.93-13.28-3.28-20.75-1.15,1.64,2.98,2.83,5.59,4.47,7.88.66.93,2.32,1.7,3.47,1.63,13.8-.85,24.59,12.43,21.01,25.9-1.58,5.94-5.22,10.32-10.79,14.2ZM193.48,161.44c-13.08,10.99-23.83,23.39-31.21,39.15,4.2,2.14,8.13,4.15,12.24,6.24,7.39-14.49,16.85-26.9,29.04-37.51-3.42-2.67-6.63-5.19-10.07-7.88Z"/>
      <path class="cls-1" d="M476.43,119.57c7.32-3.22,14.41-6.74,19.7-12.76,2.4-2.74,4.44-6.1,5.63-9.53,1.96-5.63-.7-10.92-6.24-13.67-6.6-3.28-13.58-2.91-20.52-1.48-3.4.7-6.73,1.89-9.98,3.14-5.06,1.96-5.02,2.06-8.67-2.97,7.96-5.83,16.69-9.86,26.41-11.52,8.1-1.38,16.18-1.31,23.94,1.94,12.76,5.35,17.27,17.55,10.97,29.88-5.28,10.36-14.16,16.91-24.05,22.31-3.27,1.78-6.72,3.25-10.38,5.01,27.5,44,41.66,91.77,41.13,143.64-.53,51.76-15.41,99.13-43.76,142.72-26.98-13.27-53.47-26.31-80.17-39.44,25.04-53.35,33.3-107.16,5.83-162.32.63-.48,1.15-1.02,1.78-1.33,3.68-1.81,7.39-3.57,11.68-5.63,25.12,53.38,24.42,106.24-.81,159.76,14.06,6.76,28.16,13.54,42.77,20.56,1.44-2.42,2.91-4.67,4.17-7.04,23.27-43.69,32.64-90.15,26.35-139.29-4.63-36.15-17.08-69.65-37.64-99.97-1.81-2.67-3.46-3.43-6.66-2.76-9.81,2.07-19.73,3.1-29.73,1.13-5.49-1.09-10.61-3.1-12.47-8.86-1.92-5.96,1.02-10.84,5.03-15.63,7.12,14.16,19.69,12.93,33.37,12.06-24.41-31.81-54.61-54.72-90.2-70.7-35.67-16.01-73.19-22.61-113.31-20.58,1.76-2.46,2.82-4.06,4.01-5.56,5.5-6.95,10.93-13.96,16.66-20.71,1.16-1.36,3.52-2.49,5.29-2.44,41.56,1.07,80.52,11.91,117.21,31.31,37.1,19.61,67.41,46.96,92.67,80.74Z"/>
      <path class="cls-1" d="M3.19,316.61c14.9,2.41,25.96,9.13,34.58,19.99,8.49,10.7,12.21,23.26,13.44,36.03,6.69,1.75,13.16,2.78,19.1,5.14,16.08,6.38,26.6,18.46,31.71,34.74,3.05,9.71,4.52,19.91,6.71,29.89.1.45.22.89.35,1.37,33.93-18.54,76.61-6.12,91.6,41.92,19.4-3.23,36.73,1.96,51.89,14.3,9.81,7.98,17.14,17.94,22.42,30.48-57.69,2.47-109.72-12.85-156.86-44.29C57.33,445.62,19.08,389.36,3.19,316.61Z"/>
      <path class="cls-1" d="M50.94,112.65c22.69-30.3,50.81-53.53,83.14-72.01,35.79-20.46,77.81-30.23,98.71-31.04-.73,1.08-1.26,2.02-1.93,2.84-7.55,9.3-15.05,18.64-22.77,27.8-1.33,1.58-3.46,2.88-5.46,3.44-49.01,13.83-90.05,39.89-122.19,79.56-2.18,2.7-3.7,3.13-6.67,1.46-7.28-4.08-14.74-7.82-22.82-12.06Z"/>
      <path class="cls-1" d="M275.09,81.04v13.58c-57.25-2.8-105.88,15.39-144.11,59.44-3.09-1.7-6.25-3.41-9.37-5.18-1.06-.6-2.05-1.34-3.55-2.34,16.35-20.69,36.54-35.98,59.78-47.33,30.58-14.94,62.78-21.63,97.26-18.17Z"/>
      <path class="cls-1" d="M117.65,174.06c-3.19,5.33-6.11,10.2-9.3,15.52-27.41-13.29-54.69-26.52-82.3-39.91,3.38-5.68,6.36-10.68,9.47-15.91,27.4,13.45,54.54,26.77,82.12,40.31Z"/>
      <path class="cls-1" d="M206.44,389.36c4.42-5.1,4.44-5.13,9.67-2.23,2.72,1.51,5.38,3.14,8.06,4.74.19.11.28.4.62.9-5.73,3.52-11.4,7.13-17.22,10.45-.99.57-2.88.34-4.01-.23-21.1-10.5-42.15-21.11-63.21-31.7-5.12-2.58-10.29-5.07-15.3-7.86-1.75-.98-3.46-2.48-4.52-4.16-3.94-6.29-7.6-12.75-11.37-19.14.25-.21.49-.42.74-.63,32.16,16.61,64.32,33.21,96.53,49.85Z"/>
      <path class="cls-1" d="M268.44,245.26c42.94-19.17,85.13-38,127.66-56.98,1.89,3.28,3.54,6.15,5.51,9.57-3.2,1.57-6.02,3.05-8.92,4.36-32.3,14.48-64.61,28.94-96.94,43.37-5.12,2.28-10.39,4.23-15.48,6.57-2.13.98-3.62.86-5.25-.83-1.8-1.87-3.82-3.54-6.58-6.06Z"/>
      <path class="cls-1" d="M57.32,180.61c1.7.63,2.74.93,3.71,1.4,12.58,6.05,25.12,12.21,37.76,18.15,2.96,1.39,3.45,2.83,2.51,5.99-2.12,7.14-3.63,14.47-5.39,21.72-.23.95-.45,1.91-.77,3.26-9.24-4.27-18.02-9.02-27.3-12.41-8.6-3.15-11.92-8.07-10.68-17.23.89-6.6.17-13.42.17-20.88Z"/>
      <path class="cls-1" d="M71.82,64c-8.58,2.62-17.6,3.79-24.22,10.7-6.43,6.71-6.9,15.74-9.8,24.13-2.24-8.77-3.3-17.72-9.81-24.55-6.6-6.94-15.6-7.97-24.34-10.22,8.94-2.35,18.36-3.02,25.03-10.33,6.56-7.18,6.71-16.71,9.2-25.57,2.57,8.82,2.95,18.17,9.18,25.35,6.48,7.47,15.74,8.41,24.75,10.48Z"/>
      <path class="cls-1" d="M384.58,220.39c.55-.44.72-.64.94-.74,2.48-1.11,4.97-2.2,7.44-3.29,16.69,21.31,24.43,81.62,12.8,102.18-.19-1.04-.48-1.69-.4-2.28,1.11-8.13-1.47-15.27-5.99-21.82-1.51-2.19-1.82-4.25-1.42-6.93,3.11-20.89-1.37-40.61-9.77-59.64-1.1-2.5-2.37-4.92-3.6-7.47Z"/>
      <path class="cls-1" d="M421.86,177.08c-4.27,2.1-8.01,3.95-12.03,5.93-10.23-15.86-22.16-29.81-36.43-42.17,3.05-3.27,5.82-6.23,8.92-9.55,16.16,12.59,29.15,27.56,39.54,45.8Z"/>
      <path class="cls-1" d="M31.53,451.24c8.62-.02,15.7,6.77,15.79,15.15.09,8.77-6.79,15.73-15.54,15.71-8.7-.02-15.78-6.96-15.87-15.57-.09-8.31,7.02-15.26,15.62-15.28Z"/>
      <path class="cls-1" d="M474.09,38.54c4.15.06,7.46,3.6,7.3,7.79-.15,3.99-3.32,6.94-7.34,6.81-4.04-.12-7.37-3.48-7.31-7.38.06-4.19,3.21-7.28,7.35-7.22Z"/>
      <path class="cls-1" d="M451.94,345.45c4.08,0,7.21,3.06,7.11,6.99-.09,3.58-3.12,6.44-6.83,6.44-3.65,0-6.92-3.22-6.95-6.85-.02-3.61,2.98-6.58,6.67-6.58Z"/>
      <path class="cls-1" d="M460.98,292.03c-3.46.01-6.46-3.02-6.38-6.44.08-3.41,2.86-6.02,6.34-5.96,3.55.06,6.12,2.64,6.14,6.16.02,3.43-2.72,6.23-6.09,6.24Z"/>
      <path class="cls-1" d="M83.11,23.54c-3.19.02-5.45-2.21-5.33-4.98.13-2.9,1.72-4.57,4.67-4.65,2.52-.07,5.1,2.54,4.92,5.01-.21,2.86-1.87,4.44-4.26,4.62Z"/>
      <path class="cls-1" d="M454.47,195.31c-.47,3.05-2.09,4.62-5.07,4.39-2.77-.21-4.35-1.86-4.24-4.61.11-2.88,1.77-4.62,4.77-4.51,3.03.11,4.22,2.13,4.54,4.73Z"/>
      <path class="cls-1" d="M156.08,92.22c-2.68,1.9-4.13,3.67-5.8,3.93-2.62.4-4.07-1.63-4.01-4.2.06-2.49,1.72-4.21,4.1-3.71,1.69.35,3.09,2.07,5.71,3.98Z"/>
      <path class="cls-1" d="M381.38,104.11c-1.14-1.53-3.24-3.12-3.14-4.56.1-1.47,2.37-2.79,3.68-4.17,1.36,1.34,3.59,2.54,3.83,4.05.22,1.39-1.71,3.11-2.7,4.69-.56,0-1.12,0-1.67,0Z"/>
      <path class="cls-1" d="M70.53,490.12c-2.76,1.73-4.44,3.61-5.95,3.49-1.33-.11-3.25-2.34-3.5-3.88-.38-2.23,1.32-4.39,3.82-3.85,1.68.37,3.05,2.21,5.63,4.24Z"/>
      <path class="cls-1" d="M256.12,61c-1.44,1.04-2.76,2.68-4.35,2.99-2.59.52-3.86-1.52-3.93-3.87-.07-2.37,1.53-3.99,3.78-3.59,1.61.29,2.98,1.86,4.46,2.86.01.54.03,1.07.04,1.61Z"/>
      <path class="cls-1" d="M129.51.06c.9,1.7,2.46,3.39,2.48,5.1,0,1.1-2.63,3.35-3.41,3.09-1.51-.51-3.45-2.37-3.54-3.77-.09-1.42,1.84-2.97,2.89-4.47.53.02,1.05.04,1.58.06Z"/>
      <path class="cls-1" d="M179.23,81.71c-.9-1.41-2.71-3.02-2.46-4.17.33-1.46,2.34-2.53,3.62-3.77,1.13,1.24,3.14,2.47,3.16,3.72.02,1.43-1.73,2.89-2.71,4.34-.54-.04-1.07-.08-1.61-.12Z"/>
      <path class="cls-1" d="M476.11,242.5c-1.5.92-3.04,2.63-4.47,2.53-1.15-.08-3.07-2.39-2.98-3.58.09-1.21,2.17-3.07,3.48-3.17,1.26-.09,2.66,1.71,4,2.68-.01.51-.02,1.02-.03,1.54Z"/>
      <path class="cls-1" d="M394.6,12.47c-1.63-2.3-3.34-3.65-3.18-4.74.19-1.37,1.91-2.53,2.97-3.79,1.2,1.13,3.2,2.16,3.37,3.43.16,1.23-1.57,2.7-3.16,5.1Z"/>
      <path class="cls-1" d="M439.69,33.87c-1.54-2.3-3.19-3.68-3.04-4.85.15-1.21,2.03-2.21,3.16-3.3,1.05,1.15,2.81,2.23,2.94,3.47.12,1.14-1.52,2.47-3.05,4.67Z"/>
      <path class="cls-1" d="M82.38,334.82c-2.08,1.52-3.48,3.26-4.36,3.02-1.25-.33-2.59-1.99-2.96-3.33-.19-.69,1.75-2.83,2.55-2.73,1.36.16,2.59,1.55,4.78,3.04Z"/>
      <path class="cls-1" d="M80.67,513.13c1.3,2.07,2.73,3.34,2.54,4.29-.23,1.14-1.83,2.01-2.84,3-.84-1.02-2.31-2.01-2.36-3.07-.05-1.06,1.3-2.19,2.66-4.22Z"/>
      <path class="cls-1" d="M424.85,505.66c1.44,2.18,2.83,3.36,2.71,4.34-.14,1.06-1.69,1.94-2.63,2.89-.85-.89-2.32-1.73-2.39-2.68-.08-1.09,1.07-2.27,2.31-4.55Z"/>
      <path class="cls-1" d="M30.28,425.27c-2.01,1.26-3.15,2.54-4.25,2.49-.88-.04-2.5-1.84-2.36-2.56.23-1.12,1.61-2.64,2.65-2.76.94-.11,2.08,1.41,3.96,2.83Z"/>
      <path class="cls-1" d="M511.7,410.84c-1.73,1.23-2.82,2.58-3.89,2.57-.85,0-2.52-1.87-2.36-2.57.26-1.12,1.61-2.45,2.74-2.73.71-.18,1.86,1.38,3.51,2.73Z"/>
      <path class="cls-1" d="M331.07,313.81c-1-1.84-2.14-2.98-1.99-3.91.15-.97,1.53-1.76,2.38-2.62.85,1,2.22,1.94,2.36,3.03.11.82-1.37,1.84-2.75,3.5Z"/>
      <path class="cls-1" d="M125.82,103.99c1.17,1.77,2.46,2.86,2.33,3.75-.13.95-1.61,1.7-2.49,2.54-.85-.91-2.25-1.75-2.38-2.74-.1-.85,1.27-1.87,2.54-3.54Z"/>
      <path class="cls-1" d="M338.43,85.45c-.99-1.77-2.05-2.81-1.91-3.64.15-.9,1.44-1.6,2.23-2.39.7.86,1.89,1.7,1.95,2.6.05.85-1.1,1.77-2.27,3.43Z"/>
      <path class="cls-1" d="M297.01,69.64c-1.12-1.42-2.31-2.29-2.22-2.97.13-.94,1.24-1.74,1.93-2.6.75.69,2.07,1.33,2.12,2.07.06.91-.92,1.89-1.83,3.51Z"/>
      <path class="cls-1" d="M441.22,156.75c.98,1.47,2.1,2.45,1.93,3.07-.25.9-1.43,1.54-2.21,2.28-.61-.77-1.67-1.53-1.7-2.32-.03-.78.99-1.6,1.99-3.03Z"/>
      <path class="cls-1" d="M467.29,323.19c.97,1.54,1.98,2.43,1.91,3.23-.07.79-1.23,1.48-1.91,2.22-.68-.74-1.83-1.44-1.89-2.22-.07-.81.94-1.7,1.89-3.22Z"/>
      <path class="cls-1" d="M470.96,220.68c-1.35,1.15-2.1,2.29-2.84,2.28-.76,0-2.05-1.1-2.1-1.79-.05-.7,1.02-1.95,1.79-2.12.7-.16,1.66.8,3.15,1.63Z"/>
    </g>
  </g>
</svg>